<?xml version="1.0" standalone="no"?>
<!DOCTYPE svg PUBLIC "-//W3C//DTD SVG 20010904//EN"
 "http://www.w3.org/TR/2001/REC-SVG-20010904/DTD/svg10.dtd">
<svg version="1.0" xmlns="http://www.w3.org/2000/svg"
 width="300.000000pt" height="300.000000pt" viewBox="0 0 300.000000 300.000000"
 preserveAspectRatio="xMidYMid meet">
<metadata>
Created by potrace 1.10, written by Peter Selinger 2001-2011
</metadata>
<g transform="translate(0.000000,300.000000) scale(0.100000,-0.100000)"
fill="#000000" stroke="none">
<path d="M61 2986 c-1 -13 -7 -17 -20 -13 -14 3 -17 0 -14 -14 4 -14 0 -19
-13 -19 -15 0 -16 -2 -5 -9 11 -7 11 -9 0 -14 -10 -4 -9 -6 4 -6 21 -1 23 -31
1 -31 -14 0 -14 -1 0 -16 21 -21 20 -44 -1 -44 -14 0 -15 -2 -4 -9 11 -7 11
-9 0 -14 -10 -4 -9 -6 4 -6 22 -1 22 -28 0 -33 -16 -3 -16 -4 0 -20 22 -21 22
-38 0 -38 -14 0 -15 -2 -4 -9 11 -7 11 -9 0 -14 -10 -4 -9 -6 4 -6 9 -1 17 -8
17 -16 0 -8 -8 -15 -17 -16 -13 0 -14 -2 -4 -6 11 -5 11 -7 0 -14 -11 -7 -10
-9 4 -9 9 0 17 -7 17 -15 0 -8 -8 -15 -17 -15 -14 0 -15 -2 -4 -9 11 -7 11 -9
0 -14 -11 -4 -11 -6 -1 -6 7 -1 15 6 18 14 4 8 12 15 20 15 8 0 14 -7 14 -15
0 -8 -7 -15 -15 -15 -8 0 -15 -7 -15 -15 0 -8 -5 -15 -11 -15 -5 0 -8 -4 -5
-9 4 -5 0 -12 -6 -14 -10 -4 -10 -6 0 -6 7 -1 15 6 18 14 4 8 12 15 20 15 8 0
14 -7 14 -15 0 -8 -7 -15 -15 -15 -8 0 -15 -7 -15 -15 0 -8 -4 -15 -10 -15 -6
0 -5 -11 3 -27 9 -20 9 -27 0 -30 -9 -3 -9 -10 -1 -29 9 -19 9 -27 0 -32 -7
-5 -8 -13 -2 -22 15 -23 12 -40 -7 -40 -15 0 -16 -2 -3 -10 9 -6 17 -5 21 2 4
6 14 8 24 5 19 -8 11 -27 -11 -27 -8 0 -14 -7 -14 -15 0 -8 -8 -15 -17 -15
-13 0 -14 -3 -5 -12 8 -8 21 -1 52 30 42 44 60 52 60 27 0 -8 -7 -15 -15 -15
-8 0 -15 -7 -15 -15 0 -8 -7 -15 -15 -15 -19 0 -19 -16 0 -24 19 -7 19 -36 0
-36 -8 0 -15 7 -15 15 0 8 -7 15 -15 15 -23 0 -19 -7 30 -53 46 -45 56 -67 30
-67 -8 0 -15 -7 -15 -15 0 -8 -7 -15 -15 -15 -8 0 -15 -4 -15 -10 0 -5 7 -10
15 -10 8 0 15 5 15 10 0 6 7 10 15 10 8 0 15 -7 15 -15 0 -8 -7 -15 -15 -15
-8 0 -15 -7 -15 -15 0 -8 -7 -15 -15 -15 -8 0 -15 -4 -15 -10 0 -19 21 -10 55
24 38 36 43 46 20 46 -17 0 -20 25 -5 35 6 3 13 -1 16 -9 10 -26 23 -19 80 39
59 60 68 64 79 38 6 -17 7 -17 19 0 16 21 36 22 36 2 0 -8 -7 -15 -15 -15 -8
0 -15 -7 -15 -15 0 -8 -7 -15 -15 -15 -8 0 -15 -7 -15 -15 0 -8 -7 -15 -15
-15 -8 0 -15 -7 -15 -15 0 -8 -7 -15 -15 -15 -8 0 -15 -7 -15 -15 0 -8 -7 -15
-15 -15 -8 0 -15 -4 -15 -10 0 -27 37 5 215 184 107 107 196 191 199 188 12
-11 6 -32 -9 -32 -8 0 -15 -7 -15 -15 0 -8 -7 -15 -15 -15 -8 0 -15 -7 -15
-15 0 -8 -7 -15 -15 -15 -8 0 -15 -7 -15 -15 0 -8 -7 -15 -15 -15 -8 0 -15 -7
-15 -15 0 -8 -7 -15 -15 -15 -8 0 -15 -7 -15 -15 0 -8 -7 -15 -15 -15 -8 0
-15 -7 -15 -15 0 -8 -7 -15 -15 -15 -8 0 -15 -7 -15 -15 0 -8 -7 -15 -15 -15
-8 0 -15 -7 -15 -15 0 -8 -7 -15 -15 -15 -8 0 -15 -7 -15 -15 0 -8 -7 -15 -15
-15 -8 0 -15 -7 -15 -15 0 -8 -7 -15 -15 -15 -8 0 -15 -7 -15 -15 0 -8 -7 -15
-15 -15 -8 0 -15 -7 -15 -15 0 -8 -7 -15 -15 -15 -8 0 -15 -4 -15 -10 0 -25
33 3 211 180 105 105 193 190 195 190 8 0 44 -40 44 -50 0 -5 -7 -10 -15 -10
-8 0 -15 -7 -15 -15 0 -8 -7 -15 -15 -15 -8 0 -15 -7 -15 -15 0 -8 -7 -15 -15
-15 -8 0 -15 -7 -15 -15 0 -8 -7 -15 -15 -15 -8 0 -15 -7 -15 -15 0 -8 -7 -15
-15 -15 -8 0 -15 -7 -15 -15 0 -8 -7 -15 -15 -15 -8 0 -15 -7 -15 -15 0 -8 -7
-15 -15 -15 -8 0 -15 -7 -15 -15 0 -8 -7 -15 -15 -15 -8 0 -15 -7 -15 -15 0
-8 -7 -15 -15 -15 -8 0 -15 -7 -15 -15 0 -8 -7 -15 -15 -15 -8 0 -15 -7 -15
-15 0 -8 -7 -15 -15 -15 -8 0 -15 -7 -15 -15 0 -8 -7 -15 -15 -15 -8 0 -15 -7
-15 -15 0 -8 -7 -15 -15 -15 -8 0 -15 -4 -15 -10 0 -25 33 3 214 184 107 107
197 192 200 188 12 -11 6 -32 -9 -32 -8 0 -15 -7 -15 -15 0 -8 -7 -15 -15 -15
-8 0 -15 -7 -15 -15 0 -8 -7 -15 -15 -15 -8 0 -15 -7 -15 -15 0 -8 -7 -15 -15
-15 -16 0 -20 -12 -8 -23 3 -4 34 22 69 57 34 36 64 62 68 59 12 -12 6 -33 -9
-33 -8 0 -15 -7 -15 -15 0 -8 -7 -15 -15 -15 -8 0 -15 -7 -15 -15 0 -8 -7 -15
-15 -15 -8 0 -15 -7 -15 -15 0 -8 -7 -15 -15 -15 -8 0 -15 -7 -15 -15 0 -8 -7
-15 -15 -15 -8 0 -15 -7 -15 -15 0 -8 -7 -15 -15 -15 -8 0 -15 -7 -15 -15 0
-8 -7 -15 -15 -15 -24 0 -17 23 15 50 33 27 38 40 15 40 -8 0 -15 -7 -15 -15
0 -8 -7 -15 -15 -15 -8 0 -15 -7 -15 -15 0 -8 -7 -15 -15 -15 -8 0 -15 -7 -15
-15 0 -8 -7 -15 -15 -15 -8 0 -15 -7 -15 -15 0 -8 -7 -15 -15 -15 -8 0 -15 -7
-15 -15 0 -8 -7 -15 -15 -15 -8 0 -15 -7 -15 -15 0 -8 -7 -15 -15 -15 -8 0
-15 -7 -15 -15 0 -8 -7 -15 -15 -15 -8 0 -15 -7 -15 -15 0 -8 -7 -15 -15 -15
-8 0 -15 -4 -15 -10 0 -23 23 -6 104 75 85 85 106 99 106 70 0 -8 -7 -15 -15
-15 -8 0 -15 -7 -15 -15 0 -8 -7 -15 -15 -15 -8 0 -15 -7 -15 -15 0 -8 -7 -15
-15 -15 -8 0 -15 -4 -15 -10 0 -24 29 -1 169 139 83 82 152 146 155 143 12
-11 6 -32 -9 -32 -8 0 -15 -7 -15 -15 0 -8 -7 -15 -15 -15 -8 0 -15 -7 -15
-15 0 -8 -7 -15 -15 -15 -17 0 -20 -16 -5 -25 6 -3 13 1 16 9 8 20 34 21 34 1
0 -8 -7 -15 -15 -15 -8 0 -15 -7 -15 -15 0 -8 -7 -15 -15 -15 -8 0 -15 -7 -15
-15 0 -8 -7 -15 -15 -15 -8 0 -15 -7 -15 -15 0 -8 -7 -15 -15 -15 -8 0 -15 -7
-15 -15 0 -8 -7 -15 -15 -15 -8 0 -15 -7 -15 -15 0 -8 -7 -15 -15 -15 -8 0
-15 -7 -15 -15 0 -8 -7 -15 -15 -15 -8 0 -15 -4 -15 -10 0 -22 23 -4 153 124
75 73 139 131 142 128 11 -11 5 -32 -10 -32 -8 0 -15 -7 -15 -15 0 -8 -7 -15
-15 -15 -8 0 -15 -7 -15 -15 0 -8 -7 -15 -15 -15 -8 0 -15 -7 -15 -15 0 -8 -7
-15 -15 -15 -16 0 -20 -12 -8 -24 4 -3 19 7 34 24 30 33 49 39 49 15 0 -8 -7
-15 -15 -15 -8 0 -15 -7 -15 -15 0 -8 -7 -15 -15 -15 -8 0 -15 -7 -15 -15 0
-8 -7 -15 -15 -15 -8 0 -15 -7 -15 -15 0 -8 -7 -15 -15 -15 -8 0 -15 -7 -15
-15 0 -8 -7 -15 -15 -15 -8 0 -15 -7 -15 -15 0 -8 -7 -15 -15 -15 -16 0 -20
-16 -6 -24 4 -3 21 10 36 29 29 34 45 37 45 9 0 -8 -7 -14 -15 -14 -8 0 -15
-4 -15 -10 0 -25 30 -2 125 95 57 57 105 101 109 98 12 -12 6 -33 -9 -33 -8 0
-15 -7 -15 -15 0 -8 -7 -15 -15 -15 -8 0 -15 -7 -15 -15 0 -8 -7 -15 -15 -15
-8 0 -15 -7 -15 -15 0 -8 -7 -15 -15 -15 -8 0 -15 -7 -15 -15 0 -8 -7 -15 -15
-15 -8 0 -15 -7 -15 -15 0 -8 -7 -15 -15 -15 -8 0 -15 -7 -15 -15 0 -8 -7 -15
-15 -15 -8 0 -15 -7 -15 -15 0 -8 -7 -15 -15 -15 -8 0 -15 -4 -15 -10 0 -23
25 -3 139 110 102 101 122 116 130 102 5 -9 13 -13 17 -9 4 4 0 13 -9 20 -16
11 -14 15 18 41 38 32 44 46 20 46 -8 0 -15 -7 -15 -15 0 -8 -7 -15 -15 -15
-8 0 -15 -7 -15 -15 0 -25 -20 -17 -59 22 l-38 37 54 53 c57 55 73 63 73 38 0
-8 -7 -15 -15 -15 -8 0 -15 -7 -15 -15 0 -8 -7 -15 -15 -15 -8 0 -15 -7 -15
-15 0 -8 -7 -15 -15 -15 -8 0 -15 -7 -15 -15 0 -8 3 -15 6 -15 4 0 40 34 81
75 74 75 93 88 93 60 0 -8 -7 -15 -15 -15 -8 0 -15 -7 -15 -15 0 -8 -7 -15
-15 -15 -8 0 -15 -7 -15 -15 0 -8 -7 -15 -15 -15 -8 0 -15 -7 -15 -15 0 -8 -7
-15 -15 -15 -8 0 -15 -7 -15 -15 0 -8 -7 -15 -15 -15 -8 0 -15 -7 -15 -15 0
-8 3 -15 6 -15 11 0 194 189 194 200 0 6 -4 10 -10 10 -5 0 -10 -7 -10 -15 0
-8 -6 -15 -14 -15 -27 0 -25 16 5 40 29 24 39 50 19 50 -5 0 -10 -7 -10 -15 0
-8 -7 -15 -15 -15 -8 0 -15 -7 -15 -15 0 -8 -7 -15 -15 -15 -24 0 -18 17 20
55 38 38 55 44 55 20 0 -8 5 -15 10 -15 16 0 12 18 -10 40 -24 24 -30 25 -30
5 0 -8 -7 -15 -15 -15 -8 0 -15 -7 -15 -15 0 -8 -7 -15 -15 -15 -8 0 -15 -7
-15 -15 0 -8 -7 -15 -15 -15 -8 0 -15 -7 -15 -15 0 -8 -7 -15 -15 -15 -8 0
-15 -7 -15 -15 0 -8 -7 -15 -15 -15 -8 0 -15 -7 -15 -15 0 -8 -7 -15 -15 -15
-8 0 -15 -7 -15 -15 0 -8 -7 -15 -15 -15 -8 0 -15 -7 -15 -15 0 -8 -7 -15 -15
-15 -8 0 -15 -7 -15 -15 0 -8 -7 -15 -15 -15 -8 0 -15 4 -15 10 0 5 59 68 130
140 122 121 145 150 120 150 -5 0 -10 -7 -10 -15 0 -8 -7 -15 -15 -15 -8 0
-15 -7 -15 -15 0 -8 -6 -15 -14 -15 -7 0 -16 -9 -19 -21 -3 -12 -10 -18 -16
-14 -6 3 -11 -1 -11 -9 0 -9 -7 -16 -15 -16 -8 0 -15 -7 -15 -15 0 -8 -7 -15
-15 -15 -8 0 -15 -7 -15 -15 0 -8 -7 -15 -15 -15 -8 0 -15 -7 -15 -15 0 -8 -7
-15 -15 -15 -25 0 -17 20 25 62 40 40 49 58 30 58 -5 0 -10 -7 -10 -15 0 -8
-7 -15 -15 -15 -8 0 -15 -7 -15 -15 0 -8 -7 -15 -15 -15 -8 0 -15 -7 -15 -15
0 -8 -7 -15 -15 -15 -8 0 -15 -7 -15 -15 0 -8 -7 -15 -15 -15 -8 0 -15 -7 -15
-15 0 -18 26 -9 34 11 7 18 26 9 26 -12 0 -8 -7 -14 -15 -14 -8 0 -15 -7 -15
-15 0 -21 -18 -19 -44 6 l-23 22 134 132 c123 123 149 155 123 155 -5 0 -10
-7 -10 -15 0 -8 -7 -15 -15 -15 -8 0 -15 -7 -15 -15 0 -8 -7 -15 -15 -15 -8 0
-15 -7 -15 -15 0 -8 -7 -15 -15 -15 -8 0 -15 -7 -15 -15 0 -8 -7 -15 -15 -15
-8 0 -15 -7 -15 -15 0 -8 -7 -15 -15 -15 -8 0 -15 -7 -15 -15 0 -8 -7 -15 -15
-15 -8 0 -15 -7 -15 -15 0 -8 -7 -15 -15 -15 -8 0 -15 -7 -15 -15 0 -8 -7 -15
-15 -15 -8 0 -15 -7 -15 -15 0 -15 -21 -21 -32 -9 -3 3 80 92 186 197 179 180
211 217 186 217 -6 0 -10 -7 -10 -15 0 -8 -7 -15 -15 -15 -8 0 -15 -7 -15 -15
0 -8 -7 -15 -15 -15 -8 0 -15 -7 -15 -15 0 -8 -7 -15 -15 -15 -8 0 -15 -7 -15
-15 0 -8 -7 -15 -15 -15 -8 0 -15 -7 -15 -15 0 -8 -7 -15 -15 -15 -8 0 -15 -7
-15 -15 0 -8 -7 -15 -15 -15 -8 0 -15 -7 -15 -15 0 -8 -7 -15 -15 -15 -8 0
-15 -7 -15 -15 0 -8 -7 -15 -15 -15 -8 0 -15 -7 -15 -15 0 -8 -7 -15 -15 -15
-8 0 -15 -7 -15 -15 0 -8 -7 -15 -15 -15 -8 0 -15 -7 -15 -15 0 -8 -7 -15 -15
-15 -8 0 -15 -7 -15 -15 0 -8 -7 -15 -15 -15 -8 0 -15 -7 -15 -15 0 -21 -22
-19 -43 5 -9 11 -17 22 -17 24 0 3 99 104 220 225 121 121 220 225 220 230 0
6 -4 11 -10 11 -5 0 -10 -7 -10 -15 0 -8 -7 -15 -15 -15 -8 0 -15 -7 -15 -15
0 -8 -7 -15 -15 -15 -8 0 -15 -7 -15 -15 0 -8 -7 -15 -15 -15 -8 0 -15 -7 -15
-15 0 -8 -7 -15 -15 -15 -8 0 -15 -7 -15 -15 0 -8 -7 -15 -15 -15 -8 0 -15 -7
-15 -15 0 -8 -7 -15 -15 -15 -8 0 -15 -7 -15 -15 0 -8 -7 -15 -15 -15 -8 0
-15 -7 -15 -15 0 -8 -7 -15 -15 -15 -8 0 -15 -7 -15 -15 0 -8 -7 -15 -15 -15
-8 0 -15 -7 -15 -15 0 -8 -7 -15 -15 -15 -8 0 -15 -7 -15 -15 0 -8 -7 -15 -15
-15 -8 0 -15 -7 -15 -15 0 -8 -7 -15 -15 -15 -8 0 -15 -7 -15 -15 0 -8 -7 -15
-15 -15 -8 0 -15 -7 -15 -15 0 -8 -7 -15 -15 -15 -8 0 -15 -7 -15 -15 0 -8 -7
-15 -15 -15 -8 0 -15 4 -15 9 0 5 86 95 190 199 176 176 206 212 180 212 -5 0
-10 -7 -10 -15 0 -8 -7 -15 -15 -15 -8 0 -15 -7 -15 -15 0 -8 -7 -15 -15 -15
-8 0 -15 -7 -15 -15 0 -8 -7 -15 -15 -15 -8 0 -15 -7 -15 -15 0 -8 -7 -15 -15
-15 -8 0 -15 -7 -15 -15 0 -8 -7 -15 -15 -15 -8 0 -15 -7 -15 -15 0 -8 -7 -15
-15 -15 -8 0 -15 -7 -15 -15 0 -8 -7 -15 -15 -15 -8 0 -15 -7 -15 -15 0 -8 -7
-15 -15 -15 -8 0 -15 -7 -15 -15 0 -8 -7 -15 -15 -15 -8 0 -15 -7 -15 -15 0
-8 -7 -15 -15 -15 -8 0 -15 -7 -15 -15 0 -8 -7 -15 -15 -15 -8 0 -15 -7 -15
-15 0 -8 -7 -15 -15 -15 -8 0 -15 -7 -15 -15 0 -8 -7 -15 -15 -15 -8 0 -15 4
-15 9 0 5 86 95 190 199 176 176 206 212 180 212 -5 0 -10 -7 -10 -15 0 -8 -7
-15 -15 -15 -8 0 -15 -7 -15 -15 0 -8 -7 -15 -15 -15 -8 0 -15 -7 -15 -15 0
-8 -7 -15 -15 -15 -8 0 -15 -7 -15 -15 0 -8 -7 -15 -15 -15 -8 0 -15 -7 -15
-15 0 -8 -7 -15 -15 -15 -21 0 -19 26 3 35 16 6 16 7 0 19 -10 7 -18 16 -18
19 0 10 100 107 110 107 6 0 10 -7 10 -15 0 -8 -7 -15 -15 -15 -8 0 -15 -7
-15 -15 0 -21 11 -18 37 8 l22 23 -34 29 c-34 28 -37 45 -9 45 8 0 14 -7 14
-15 0 -8 3 -15 6 -15 8 0 144 136 144 144 0 3 -7 6 -15 6 -8 0 -15 -7 -15 -15
0 -8 -7 -15 -15 -15 -8 0 -15 -7 -15 -15 0 -8 -7 -15 -15 -15 -8 0 -15 -7 -15
-15 0 -8 -7 -15 -15 -15 -8 0 -15 -7 -15 -15 0 -8 -7 -15 -15 -15 -26 0 -17
19 30 63 48 47 54 57 30 57 -8 0 -15 -7 -15 -15 0 -8 -7 -15 -15 -15 -8 0 -15
8 -15 18 0 13 -2 14 -9 3 -7 -11 -9 -11 -14 0 -4 10 -6 9 -6 -3 -1 -22 -31
-24 -31 -3 0 8 -7 15 -15 15 -8 0 -15 -7 -15 -15 0 -8 -7 -15 -15 -15 -8 0
-15 7 -15 15 0 8 -7 15 -15 15 -8 0 -15 -7 -15 -15 0 -8 7 -15 15 -15 8 0 15
-7 15 -15 0 -8 7 -15 15 -15 8 0 15 -7 15 -15 0 -8 7 -15 15 -15 8 0 15 -7 15
-15 0 -8 -7 -15 -15 -15 -8 0 -15 -7 -15 -15 0 -8 -7 -15 -15 -15 -20 0 -19
20 2 35 15 11 14 14 -13 28 -16 9 -26 16 -21 17 8 0 -30 40 -38 40 -3 0 -5 -7
-5 -15 0 -8 -7 -15 -15 -15 -8 0 -15 6 -15 14 0 8 7 16 15 20 19 7 19 23 0 23
-8 0 -15 -6 -15 -14 0 -7 -7 -13 -15 -13 -8 0 -15 7 -15 15 0 8 -7 15 -15 15
-8 0 -15 -7 -15 -15 0 -8 -7 -15 -15 -15 -8 0 -15 7 -15 15 0 8 -7 15 -15 15
-8 0 -15 -7 -15 -15 0 -8 -7 -15 -15 -15 -8 0 -15 7 -15 15 0 8 -7 15 -15 15
-8 0 -15 -7 -15 -15 0 -8 -7 -15 -15 -15 -8 0 -15 7 -15 15 0 8 -7 15 -15 15
-8 0 -15 -7 -15 -15 0 -8 -7 -15 -15 -15 -8 0 -15 6 -15 13 0 8 -7 14 -15 14
-8 0 -15 -6 -15 -14 0 -7 -7 -13 -15 -13 -8 0 -15 6 -15 13 0 8 -7 14 -15 14
-8 0 -15 -6 -15 -14 0 -7 -7 -13 -15 -13 -8 0 -15 8 -15 18 0 13 -2 14 -9 3
-7 -11 -9 -11 -14 0 -4 10 -6 9 -6 -3 -1 -10 -8 -18 -16 -18 -8 0 -15 8 -15
18 0 13 -2 14 -9 3 -7 -11 -9 -11 -14 0 -4 10 -6 9 -6 -3 -1 -10 -8 -18 -16
-18 -8 0 -15 8 -15 18 0 13 -2 14 -9 3 -7 -11 -9 -11 -14 0 -4 10 -6 9 -6 -3
-1 -10 -8 -18 -16 -18 -8 0 -15 8 -15 18 0 13 -2 14 -9 3 -7 -11 -9 -11 -14 0
-4 10 -6 9 -6 -3 -1 -22 -31 -24 -31 -3 0 8 -7 15 -15 15 -8 0 -15 -7 -15 -15
0 -8 -7 -15 -15 -15 -8 0 -15 8 -15 18 0 13 -2 14 -9 3 -7 -11 -9 -11 -14 0
-4 9 -6 8 -6 -5z m89 -31 c0 -8 7 -15 15 -15 8 0 15 7 15 15 0 8 7 15 15 15 8
0 15 -7 15 -15 0 -8 7 -15 15 -15 8 0 15 7 15 15 0 8 7 15 15 15 8 0 15 -7 15
-15 0 -8 7 -15 15 -15 8 0 15 7 15 15 0 8 7 15 15 15 8 0 15 -7 15 -15 0 -8 7
-15 15 -15 8 0 15 7 15 15 0 8 7 15 15 15 8 0 15 -7 15 -15 0 -8 7 -15 15 -15
8 0 15 7 15 15 0 8 7 15 15 15 8 0 15 -7 15 -15 0 -8 7 -15 15 -15 8 0 15 7
15 15 0 8 7 15 15 15 8 0 15 -7 15 -15 0 -8 7 -15 15 -15 8 0 15 7 15 15 0 8
7 15 15 15 8 0 15 -7 15 -15 0 -8 7 -15 15 -15 8 0 15 7 15 15 0 8 7 15 15 15
8 0 15 -7 15 -15 0 -8 7 -15 15 -15 8 0 15 7 15 15 0 8 7 15 15 15 8 0 15 -7
15 -15 0 -8 7 -15 15 -15 8 0 15 -7 15 -15 0 -8 -7 -15 -15 -15 -8 0 -15 -7
-15 -15 0 -8 7 -15 15 -15 8 0 15 -7 15 -15 0 -8 7 -15 15 -15 8 0 15 7 15 15
0 8 7 15 15 15 8 0 15 -7 15 -15 0 -8 7 -15 15 -15 8 0 15 -7 15 -15 0 -8 7
-15 15 -15 8 0 15 -7 15 -15 0 -8 -7 -15 -15 -15 -8 0 -15 -7 -15 -15 0 -8 7
-15 15 -15 8 0 15 5 15 10 0 13 37 50 50 50 6 0 10 7 10 15 0 8 7 15 15 15 8
0 15 -7 15 -15 0 -8 -7 -15 -15 -15 -8 0 -15 -7 -15 -15 0 -8 -7 -15 -15 -15
-8 0 -15 -7 -15 -15 0 -8 -7 -15 -15 -15 -8 0 -15 -7 -15 -15 0 -8 -7 -15 -15
-15 -8 0 -15 -7 -15 -15 0 -8 -7 -15 -15 -15 -8 0 -15 7 -15 15 0 8 7 15 15
15 8 0 15 7 15 15 0 8 -7 15 -15 15 -8 0 -15 7 -15 15 0 8 -7 15 -15 15 -8 0
-15 7 -15 15 0 8 -7 15 -15 15 -8 0 -15 -7 -15 -15 0 -8 -7 -15 -15 -15 -8 0
-15 7 -15 15 0 8 -7 15 -15 15 -8 0 -15 -7 -15 -15 0 -8 7 -15 15 -15 8 0 15
-7 15 -15 0 -8 -7 -15 -15 -15 -8 0 -15 -7 -15 -15 0 -8 7 -15 15 -15 8 0 15
-7 15 -15 0 -8 7 -15 15 -15 8 0 15 -7 15 -15 0 -8 -7 -15 -15 -15 -8 0 -15
-7 -15 -15 0 -8 7 -15 15 -15 8 0 15 -7 15 -15 0 -8 7 -15 15 -15 8 0 15 7 15
15 0 8 7 15 15 15 8 0 15 -7 15 -15 0 -8 -7 -15 -15 -15 -8 0 -15 -7 -15 -15
0 -8 -7 -15 -15 -15 -8 0 -15 7 -15 15 0 8 -7 15 -15 15 -8 0 -15 -7 -15 -15
0 -8 7 -15 15 -15 8 0 15 -7 15 -15 0 -8 -7 -15 -15 -15 -8 0 -15 -7 -15 -15
0 -8 7 -15 15 -15 8 0 15 5 15 10 0 13 37 50 50 50 6 0 10 5 10 10 0 13 37 50
50 50 6 0 10 -7 10 -15 0 -8 -7 -15 -15 -15 -8 0 -15 -7 -15 -15 0 -8 -7 -15
-15 -15 -8 0 -15 -7 -15 -15 0 -8 -7 -15 -15 -15 -8 0 -15 -7 -15 -15 0 -8 -7
-15 -15 -15 -8 0 -15 -7 -15 -15 0 -8 -7 -15 -15 -15 -8 0 -15 -7 -15 -15 0
-8 -7 -15 -15 -15 -8 0 -15 -7 -15 -15 0 -8 -7 -15 -15 -15 -8 0 -15 -7 -15
-15 0 -8 -7 -15 -15 -15 -8 0 -15 -7 -15 -15 0 -8 -7 -15 -15 -15 -8 0 -15 -7
-15 -15 0 -8 -7 -15 -15 -15 -8 0 -15 -7 -15 -15 0 -8 -7 -15 -15 -15 -8 0
-15 -7 -15 -15 0 -8 -7 -15 -15 -15 -8 0 -15 -7 -15 -15 0 -8 -7 -15 -15 -15
-8 0 -15 -7 -15 -15 0 -8 -7 -15 -15 -15 -8 0 -15 -7 -15 -15 0 -8 -7 -15 -15
-15 -8 0 -15 -7 -15 -15 0 -8 -7 -15 -15 -15 -8 0 -15 5 -15 10 0 13 37 50 50
50 6 0 10 5 10 10 0 13 37 50 50 50 5 0 10 7 10 15 0 8 -7 15 -15 15 -8 0 -15
-7 -15 -15 0 -8 -7 -15 -15 -15 -8 0 -15 7 -15 15 0 8 -7 15 -15 15 -8 0 -15
-7 -15 -15 0 -8 7 -15 15 -15 8 0 15 -7 15 -15 0 -8 -7 -15 -15 -15 -8 0 -15
-7 -15 -15 0 -8 -7 -15 -15 -15 -8 0 -15 7 -15 15 0 8 7 15 15 15 8 0 15 7 15
15 0 8 -7 15 -15 15 -8 0 -15 7 -15 15 0 8 -7 15 -15 15 -8 0 -15 -7 -15 -15
0 -8 -7 -15 -15 -15 -8 0 -15 7 -15 15 0 8 -7 15 -15 15 -8 0 -15 -7 -15 -15
0 -8 -7 -15 -15 -15 -8 0 -15 7 -15 15 0 8 -7 15 -15 15 -8 0 -15 -7 -15 -15
0 -8 7 -15 15 -15 8 0 15 -7 15 -15 0 -8 -7 -15 -15 -15 -8 0 -15 -7 -15 -15
0 -8 -7 -15 -15 -15 -8 0 -15 7 -15 15 0 8 7 15 15 15 8 0 15 7 15 15 0 8 -7
15 -15 15 -8 0 -15 7 -15 15 0 8 7 15 15 15 8 0 15 7 15 15 0 8 7 15 15 15 8
0 15 -7 15 -15 0 -8 7 -15 15 -15 8 0 15 7 15 15 0 8 -7 15 -15 15 -8 0 -15 7
-15 15 0 8 7 15 15 15 8 0 15 7 15 15 0 8 -7 15 -15 15 -8 0 -15 7 -15 15 0 8
7 15 15 15 8 0 15 -7 15 -15 0 -8 7 -15 15 -15 8 0 15 7 15 15 0 8 7 15 15 15
8 0 15 -7 15 -15 0 -8 7 -15 15 -15 8 0 15 -7 15 -15 0 -8 -7 -15 -15 -15 -8
0 -15 -7 -15 -15 0 -8 7 -15 15 -15 8 0 15 -7 15 -15 0 -8 7 -15 15 -15 8 0
15 7 15 15 0 8 7 15 15 15 8 0 15 7 15 15 0 8 -7 15 -15 15 -8 0 -15 7 -15 15
0 8 7 15 15 15 8 0 15 -7 15 -15 0 -8 7 -15 15 -15 8 0 15 7 15 15 0 8 -7 15
-15 15 -8 0 -15 7 -15 15 0 8 7 15 15 15 8 0 15 7 15 15 0 8 -7 15 -15 15 -8
0 -15 7 -15 15 0 8 7 15 15 15 8 0 15 -7 15 -15 0 -8 7 -15 15 -15 8 0 15 7
15 15 0 8 -7 15 -15 15 -8 0 -15 7 -15 15 0 8 7 15 15 15 8 0 15 -7 15 -15 0
-8 7 -15 15 -15 8 0 15 7 15 15 0 8 -7 15 -15 15 -8 0 -15 7 -15 15 0 8 7 15
15 15 8 0 15 7 15 15 0 8 -7 15 -15 15 -8 0 -15 7 -15 15 0 8 7 15 15 15 8 0
15 -7 15 -15 0 -8 7 -15 15 -15 8 0 15 7 15 15 0 8 7 15 15 15 8 0 15 -7 15
-15 0 -8 7 -15 15 -15 8 0 15 7 15 15 0 8 7 15 15 15 8 0 15 7 15 15 0 8 7 15
15 15 8 0 15 -7 15 -15 0 -8 7 -15 15 -15 8 0 15 7 15 15 0 8 -7 15 -15 15 -8
0 -15 7 -15 15 0 8 7 15 15 15 8 0 15 7 15 15 0 8 -7 15 -15 15 -8 0 -15 7
-15 15 0 8 -7 15 -15 15 -8 0 -15 -7 -15 -15 0 -8 -7 -15 -15 -15 -8 0 -15 7
-15 15 0 8 7 15 15 15 8 0 15 7 15 15 0 8 -7 15 -15 15 -8 0 -15 7 -15 15 0 8
-7 15 -15 15 -8 0 -15 -7 -15 -15 0 -8 -7 -15 -15 -15 -8 0 -15 7 -15 15 0 8
-7 15 -15 15 -8 0 -15 -7 -15 -15 0 -8 -7 -15 -15 -15 -8 0 -15 7 -15 15 0 8
-7 15 -15 15 -8 0 -15 -7 -15 -15 0 -8 -7 -15 -15 -15 -8 0 -15 7 -15 15 0 8
7 15 15 15 8 0 15 7 15 15 0 8 -7 15 -15 15 -8 0 -15 7 -15 15 0 8 -7 15 -15
15 -8 0 -15 -7 -15 -15 0 -8 -7 -15 -15 -15 -8 0 -15 7 -15 15 0 8 -7 15 -15
15 -8 0 -15 -7 -15 -15 0 -8 7 -15 15 -15 8 0 15 -7 15 -15 0 -8 -7 -15 -15
-15 -8 0 -15 -7 -15 -15 0 -8 7 -15 15 -15 8 0 15 -7 15 -15 0 -8 7 -15 15
-15 8 0 15 -7 15 -15 0 -8 -7 -15 -15 -15 -8 0 -15 7 -15 15 0 8 -7 15 -15 15
-8 0 -15 -7 -15 -15 0 -8 7 -15 15 -15 8 0 15 -7 15 -15 0 -8 -7 -15 -15 -15
-8 0 -15 7 -15 15 0 8 -7 15 -15 15 -8 0 -15 -7 -15 -15 0 -8 7 -15 15 -15 8
0 15 -7 15 -15 0 -8 -7 -15 -15 -15 -8 0 -15 7 -15 15 0 8 -7 15 -15 15 -8 0
-15 -7 -15 -15 0 -8 7 -15 15 -15 8 0 15 -7 15 -15 0 -8 -7 -15 -15 -15 -8 0
-15 -7 -15 -15 0 -8 -7 -15 -15 -15 -8 0 -15 -7 -15 -15 0 -8 -7 -15 -15 -15
-8 0 -15 -7 -15 -15 0 -8 7 -15 15 -15 8 0 15 -7 15 -15 0 -8 -7 -15 -15 -15
-8 0 -15 7 -15 15 0 8 -7 15 -15 15 -8 0 -15 -7 -15 -15 0 -8 7 -15 15 -15 8
0 15 -7 15 -15 0 -8 -7 -15 -15 -15 -8 0 -15 7 -15 15 0 8 -7 15 -15 15 -8 0
-15 -7 -15 -15 0 -8 7 -15 15 -15 8 0 15 -7 15 -15 0 -8 -7 -15 -15 -15 -8 0
-15 -7 -15 -15 0 -8 -7 -15 -15 -15 -8 0 -15 7 -15 15 0 8 -7 15 -15 15 -8 0
-15 7 -15 15 0 8 7 15 15 15 8 0 15 7 15 15 0 8 -7 15 -15 15 -8 0 -15 -7 -15
-15 0 -8 -7 -15 -15 -15 -8 0 -15 7 -15 15 0 8 7 15 15 15 8 0 15 7 15 15 0 8
-7 15 -15 15 -8 0 -15 7 -15 15 0 8 7 15 15 15 8 0 15 -7 15 -15 0 -8 7 -15
15 -15 8 0 15 7 15 15 0 8 -7 15 -15 15 -8 0 -15 7 -15 15 0 8 7 15 15 15 8 0
15 7 15 15 0 8 -7 15 -15 15 -8 0 -15 -7 -15 -15 0 -8 -7 -15 -15 -15 -8 0
-15 7 -15 15 0 8 -7 15 -15 15 -8 0 -15 7 -15 15 0 8 7 15 15 15 8 0 15 7 15
15 0 8 -7 15 -15 15 -8 0 -15 7 -15 15 0 8 7 15 15 15 8 0 15 7 15 15 0 8 -7
15 -15 15 -8 0 -15 7 -15 15 0 8 7 15 15 15 8 0 15 7 15 15 0 8 -7 15 -15 15
-8 0 -15 7 -15 15 0 8 7 15 15 15 8 0 15 7 15 15 0 8 -7 15 -15 15 -8 0 -15 7
-15 15 0 8 6 15 14 15 7 0 16 9 19 21 3 12 10 18 16 14 16 -9 13 -35 -4 -35
-8 0 -15 -7 -15 -15 0 -8 7 -15 15 -15 8 0 15 7 15 15 0 8 7 15 15 15 8 0 15
7 15 15 0 8 -7 15 -15 15 -8 0 -15 7 -15 15 0 8 7 15 15 15 8 0 15 7 15 15 0
8 7 15 15 15 8 0 15 -7 15 -15z m780 0 c0 -8 7 -15 15 -15 8 0 15 7 15 15 0 8
7 15 15 15 8 0 15 -7 15 -15 0 -8 -7 -15 -15 -15 -8 0 -15 -7 -15 -15 0 -8 -7
-15 -15 -15 -8 0 -15 7 -15 15 0 8 -7 15 -15 15 -8 0 -15 7 -15 15 0 8 7 15
15 15 8 0 15 -7 15 -15z m-150 -30 c0 -8 7 -15 15 -15 8 0 15 -7 15 -15 0 -8
-7 -15 -15 -15 -8 0 -15 7 -15 15 0 8 -7 15 -15 15 -8 0 -15 -7 -15 -15 0 -8
-7 -15 -15 -15 -20 0 -19 16 3 39 21 23 42 26 42 6z m90 -30 c0 -8 -7 -15 -15
-15 -8 0 -15 -7 -15 -15 0 -8 7 -15 15 -15 8 0 15 -7 15 -15 0 -8 -7 -15 -15
-15 -8 0 -15 7 -15 15 0 8 -7 15 -15 15 -20 0 -19 16 3 39 21 23 42 26 42 6z
m-450 -90 c0 -8 -7 -15 -15 -15 -8 0 -15 -7 -15 -15 0 -8 7 -15 15 -15 8 0 15
-7 15 -15 0 -8 -7 -15 -15 -15 -8 0 -15 7 -15 15 0 8 -7 15 -15 15 -20 0 -19
16 3 39 21 23 42 26 42 6z m330 -30 c0 -8 -7 -15 -15 -15 -8 0 -15 -7 -15 -15
0 -8 -7 -15 -15 -15 -20 0 -19 16 3 39 21 23 42 26 42 6z m-270 -23 c0 -5 7
-9 15 -9 8 0 15 4 15 9 0 4 7 8 15 8 8 0 15 -7 15 -15 0 -8 -7 -15 -15 -15 -9
0 -12 -6 -8 -16 5 -13 11 -10 34 15 30 34 49 40 49 16 0 -8 -7 -15 -15 -15 -8
0 -15 -7 -15 -15 0 -8 -7 -15 -15 -15 -8 0 -15 -7 -15 -15 0 -8 -7 -15 -15
-15 -8 0 -15 7 -15 15 0 8 -4 15 -10 15 -13 0 -50 37 -50 50 0 6 7 10 15 10 8
0 15 -4 15 -8z m-12 -45 c12 -13 19 -27 15 -31 -5 -4 -3 -7 2 -5 16 4 45 -12
39 -22 -3 -5 0 -9 5 -9 6 0 11 -7 11 -15 0 -8 -7 -15 -15 -15 -8 0 -15 7 -15
15 0 8 -7 15 -16 15 -8 0 -13 -4 -10 -9 7 -11 -19 -33 -28 -24 -4 4 -4 0 0
-10 3 -9 10 -17 15 -17 5 0 9 -7 9 -15 0 -8 -7 -15 -15 -15 -8 0 -15 -7 -15
-15 0 -8 -7 -15 -15 -15 -20 0 -19 20 2 36 10 7 14 16 10 21 -5 4 -17 -3 -26
-16 l-19 -24 -11 22 c-7 12 -16 19 -22 16 -15 -10 -10 -22 12 -28 22 -6 21 -7
-7 -40 -16 -19 -32 -32 -36 -30 -5 2 -8 -1 -8 -6 0 -6 -7 -11 -15 -11 -8 0
-15 -7 -15 -15 0 -8 -7 -15 -15 -15 -20 0 -19 24 1 44 8 9 12 16 7 16 -5 0
-20 -13 -33 -30 -27 -32 -50 -39 -50 -15 0 8 6 15 14 15 8 0 17 11 20 25 4 14
11 23 16 20 6 -3 10 -1 10 4 0 6 -7 11 -15 11 -8 0 -15 7 -15 15 0 18 26 20
34 3 3 -7 2 0 -1 16 -6 28 -5 29 23 23 16 -3 23 -4 17 -1 -7 3 -13 10 -13 14
0 12 123 138 136 139 6 1 20 -9 32 -22z m132 -22 c0 -8 -7 -15 -15 -15 -8 0
-15 -7 -15 -15 0 -8 -7 -15 -15 -15 -8 0 -15 7 -15 15 0 8 7 15 15 15 8 0 15
7 15 15 0 8 7 15 15 15 8 0 15 -7 15 -15z m60 0 c0 -8 -7 -15 -15 -15 -8 0
-15 -7 -15 -15 0 -8 -7 -15 -15 -15 -8 0 -15 -7 -15 -15 0 -17 -26 -20 -35 -4
-4 6 2 13 14 16 12 3 21 9 21 14 0 14 33 47 48 48 6 1 12 -6 12 -14z m120 0
c0 -8 -7 -15 -15 -15 -8 0 -15 -7 -15 -15 0 -8 -7 -15 -15 -15 -20 0 -19 16 3
39 21 23 42 26 42 6z m-360 -180 c0 -8 -7 -15 -15 -15 -8 0 -15 -7 -15 -15 0
-8 -7 -15 -15 -15 -8 0 -15 7 -15 15 0 8 7 15 15 15 8 0 15 7 15 15 0 8 7 15
15 15 8 0 15 -7 15 -15z m0 -60 c0 -8 -7 -15 -15 -15 -8 0 -15 -7 -15 -15 0
-8 -7 -15 -15 -15 -20 0 -19 16 3 39 21 23 42 26 42 6z m-350 -65 c24 -24 26
-40 5 -40 -8 0 -15 7 -15 15 0 8 -7 15 -15 15 -8 0 -15 7 -15 15 0 21 16 19
40 -5z m170 5 c0 -8 -7 -15 -15 -15 -8 0 -15 -7 -15 -15 0 -8 -7 -15 -15 -15
-8 0 -15 -7 -15 -15 0 -8 -7 -15 -15 -15 -8 0 -15 7 -15 15 0 8 -7 15 -15 15
-17 0 -20 26 -4 35 6 4 13 -2 16 -14 5 -21 33 -30 33 -11 0 14 33 48 48 49 6
1 12 -6 12 -14z m-120 -61 c0 -8 7 -14 15 -14 8 0 15 -7 15 -15 0 -8 -7 -15
-15 -15 -8 0 -15 7 -15 15 0 8 -7 15 -15 15 -15 0 -21 21 -9 33 10 9 24 -2 24
-19z m-50 -1 c24 -21 26 -43 5 -43 -8 0 -15 7 -15 15 0 8 -7 15 -15 15 -8 0
-15 7 -15 15 0 20 15 19 40 -2z m980 -28 c0 -8 -7 -15 -15 -15 -8 0 -15 -7
-15 -15 0 -8 -7 -15 -15 -15 -20 0 -19 16 3 39 21 23 42 26 42 6z m-690 -30
c0 -8 -7 -15 -15 -15 -8 0 -15 -7 -15 -15 0 -8 -7 -15 -15 -15 -20 0 -19 16 3
39 21 23 42 26 42 6z m-90 -31 c0 -8 7 -14 15 -14 8 0 15 -7 15 -15 0 -8 -7
-15 -15 -15 -8 0 -15 -7 -15 -15 0 -8 -7 -15 -15 -15 -8 0 -15 -7 -15 -15 0
-8 -7 -15 -15 -15 -8 0 -15 -7 -15 -15 0 -8 -7 -15 -15 -15 -8 0 -15 -7 -15
-15 0 -8 -7 -15 -15 -15 -8 0 -15 7 -15 15 0 8 -7 15 -15 15 -8 0 -15 7 -15
15 0 8 -7 15 -15 15 -21 0 -19 16 5 40 24 24 40 26 40 5 0 -8 -7 -15 -15 -15
-8 0 -15 -7 -15 -15 0 -8 7 -15 15 -15 8 0 15 7 15 15 0 8 7 15 15 15 8 0 15
-7 15 -15 0 -8 -7 -15 -15 -15 -8 0 -15 -7 -15 -15 0 -8 7 -15 15 -15 8 0 15
5 15 10 0 13 37 50 50 50 6 0 10 7 10 15 0 8 -7 15 -15 15 -8 0 -15 7 -15 15
0 8 6 15 14 15 7 0 16 9 19 21 6 23 27 17 27 -7z m-106 -7 c25 -24 25 -37 -1
-37 -7 0 -13 7 -13 15 0 8 -7 15 -15 15 -8 0 -15 -7 -15 -15 0 -8 -7 -15 -15
-15 -8 0 -15 7 -15 15 0 8 7 15 15 15 8 0 15 7 15 15 0 21 15 19 44 -8z m646
-53 c0 -8 -7 -14 -15 -14 -8 0 -15 -7 -15 -15 0 -15 -21 -21 -33 -8 -9 8 45
63 55 57 5 -3 8 -12 8 -20z m60 -60 c0 -8 -7 -14 -15 -14 -8 0 -15 -7 -15 -15
0 -8 -7 -15 -15 -15 -21 0 -19 14 7 43 23 26 38 27 38 1z m30 -30 c0 -8 -7
-14 -15 -14 -8 0 -15 -7 -15 -15 0 -8 -7 -15 -15 -15 -8 0 -15 -7 -15 -15 0
-8 -7 -15 -15 -15 -8 0 -15 -7 -15 -15 0 -8 -7 -15 -15 -15 -8 0 -15 -7 -15
-15 0 -8 -7 -15 -15 -15 -8 0 -15 -7 -15 -15 0 -8 -7 -15 -15 -15 -27 0 -16
17 68 103 79 81 97 93 97 61z"/>
<path d="M120 2925 c0 -8 7 -15 15 -15 8 0 15 -7 15 -15 0 -8 -7 -15 -15 -15
-8 0 -15 -7 -15 -15 0 -8 -7 -15 -15 -15 -8 0 -15 -7 -15 -15 0 -8 -7 -15 -15
-15 -8 0 -15 -7 -15 -15 0 -8 7 -15 15 -15 8 0 15 -7 15 -15 0 -8 -7 -15 -15
-15 -8 0 -15 -7 -15 -15 0 -8 7 -15 15 -15 8 0 15 -7 15 -15 0 -8 -7 -15 -15
-15 -8 0 -15 -7 -15 -15 0 -8 7 -15 15 -15 8 0 15 -7 15 -15 0 -8 -7 -15 -15
-15 -8 0 -15 -7 -15 -15 0 -8 7 -15 15 -15 8 0 15 7 15 15 0 8 7 15 15 15 8 0
15 -7 15 -15 0 -8 7 -15 15 -15 8 0 15 -7 15 -15 0 -8 -7 -15 -15 -15 -8 0
-15 -7 -15 -15 0 -8 7 -15 15 -15 8 0 15 -7 15 -15 0 -8 -7 -15 -15 -15 -8 0
-15 -7 -15 -15 0 -8 7 -15 15 -15 8 0 15 7 15 15 0 8 7 15 15 15 8 0 15 7 15
15 0 8 7 15 15 15 8 0 15 7 15 15 0 8 7 15 15 15 8 0 15 7 15 15 0 8 7 15 15
15 8 0 15 7 15 15 0 8 -7 15 -15 15 -8 0 -15 7 -15 15 0 8 7 15 15 15 8 0 15
7 15 15 0 8 7 15 15 15 8 0 15 7 15 15 0 8 7 15 15 15 8 0 15 7 15 15 0 8 -7
15 -15 15 -8 0 -15 7 -15 15 0 8 7 15 15 15 8 0 15 7 15 15 0 8 -7 15 -15 15
-8 0 -15 7 -15 15 0 8 7 15 15 15 8 0 15 7 15 15 0 8 7 15 15 15 8 0 15 -7 15
-15 0 -8 7 -15 15 -15 8 0 15 7 15 15 0 8 7 15 15 15 8 0 15 -7 15 -15 0 -8 7
-15 15 -15 8 0 15 -7 15 -15 0 -8 7 -15 15 -15 8 0 15 -7 15 -15 0 -8 7 -15
15 -15 8 0 15 7 15 15 0 8 7 15 15 15 8 0 15 -7 15 -15 0 -8 7 -15 15 -15 8 0
15 7 15 15 0 8 7 15 15 15 8 0 15 -7 15 -15 0 -8 7 -15 15 -15 8 0 15 -7 15
-15 0 -8 7 -15 15 -15 8 0 15 7 15 15 0 8 -7 15 -15 15 -8 0 -15 7 -15 15 0 8
7 15 15 15 8 0 15 7 15 15 0 8 7 15 15 15 8 0 15 -7 15 -15 0 -8 7 -15 15 -15
8 0 15 7 15 15 0 8 -7 15 -15 15 -8 0 -15 7 -15 15 0 8 -7 15 -15 15 -8 0 -15
7 -15 15 0 8 7 15 15 15 8 0 15 7 15 15 0 8 -7 15 -15 15 -8 0 -15 -7 -15 -15
0 -8 -7 -15 -15 -15 -8 0 -15 7 -15 15 0 8 -7 15 -15 15 -8 0 -15 -7 -15 -15
0 -8 -7 -15 -15 -15 -8 0 -15 7 -15 15 0 8 -7 15 -15 15 -8 0 -15 -7 -15 -15
0 -8 -7 -15 -15 -15 -8 0 -15 7 -15 15 0 8 -7 15 -15 15 -8 0 -15 -7 -15 -15
0 -8 -7 -15 -15 -15 -8 0 -15 7 -15 15 0 8 -7 15 -15 15 -8 0 -15 -7 -15 -15
0 -8 -7 -15 -15 -15 -8 0 -15 7 -15 15 0 8 -7 15 -15 15 -8 0 -15 -7 -15 -15
0 -8 -7 -15 -15 -15 -8 0 -15 7 -15 15 0 8 -7 15 -15 15 -8 0 -15 -7 -15 -15
0 -8 -7 -15 -15 -15 -8 0 -15 7 -15 15 0 8 -7 15 -15 15 -8 0 -15 -7 -15 -15
0 -8 -7 -15 -15 -15 -8 0 -15 7 -15 15 0 8 -7 15 -15 15 -8 0 -15 -7 -15 -15
0 -8 -7 -15 -15 -15 -8 0 -15 7 -15 15 0 8 -7 15 -15 15 -8 0 -15 -7 -15 -15z
m90 -30 c0 -8 7 -15 15 -15 8 0 15 7 15 15 0 8 7 15 15 15 8 0 15 -7 15 -15 0
-8 -7 -15 -15 -15 -8 0 -15 -7 -15 -15 0 -8 7 -15 15 -15 8 0 15 7 15 15 0 8
7 15 15 15 8 0 15 -7 15 -15 0 -8 -7 -15 -15 -15 -8 0 -15 -7 -15 -15 0 -8 7
-15 15 -15 8 0 15 -7 15 -15 0 -8 -7 -15 -15 -15 -8 0 -15 -7 -15 -15 0 -8 7
-15 15 -15 8 0 15 -7 15 -15 0 -8 -7 -15 -15 -15 -8 0 -15 -7 -15 -15 0 -8 -7
-15 -15 -15 -8 0 -15 -7 -15 -15 0 -8 -7 -15 -15 -15 -8 0 -15 -7 -15 -15 0
-8 7 -15 15 -15 8 0 15 -7 15 -15 0 -8 -7 -15 -15 -15 -8 0 -15 -7 -15 -15 0
-8 -7 -15 -15 -15 -8 0 -15 -7 -15 -15 0 -8 -7 -15 -15 -15 -8 0 -15 7 -15 15
0 8 7 15 15 15 8 0 15 7 15 15 0 8 -7 15 -15 15 -8 0 -15 7 -15 15 0 8 -7 15
-15 15 -8 0 -15 7 -15 15 0 8 -7 15 -15 15 -8 0 -15 7 -15 15 0 8 7 15 15 15
8 0 15 7 15 15 0 8 -7 15 -15 15 -8 0 -15 7 -15 15 0 8 7 15 15 15 8 0 15 7
15 15 0 8 -7 15 -15 15 -8 0 -15 7 -15 15 0 8 7 15 15 15 8 0 15 7 15 15 0 8
7 15 15 15 8 0 15 7 15 15 0 8 7 15 15 15 8 0 15 7 15 15 0 8 7 15 15 15 8 0
15 -7 15 -15z m240 0 c0 -8 7 -15 15 -15 8 0 15 7 15 15 0 8 7 15 15 15 8 0
15 -7 15 -15 0 -8 7 -15 15 -15 8 0 15 7 15 15 0 8 7 15 15 15 8 0 15 -7 15
-15 0 -8 7 -15 15 -15 8 0 15 7 15 15 0 8 7 15 15 15 8 0 15 -7 15 -15 0 -8 7
-15 15 -15 8 0 15 -7 15 -15 0 -8 -7 -15 -15 -15 -8 0 -15 -7 -15 -15 0 -8 -7
-15 -15 -15 -8 0 -15 7 -15 15 0 8 -7 15 -15 15 -8 0 -15 -7 -15 -15 0 -8 -7
-15 -15 -15 -8 0 -15 7 -15 15 0 8 -7 15 -15 15 -8 0 -15 -7 -15 -15 0 -8 -7
-15 -15 -15 -8 0 -15 7 -15 15 0 8 -7 15 -15 15 -8 0 -15 7 -15 15 0 8 -7 15
-15 15 -8 0 -15 7 -15 15 0 8 7 15 15 15 8 0 15 -7 15 -15z"/>
<path d="M180 2865 c0 -8 -7 -15 -15 -15 -8 0 -15 -7 -15 -15 0 -8 -7 -15 -15
-15 -8 0 -15 -7 -15 -15 0 -8 7 -15 15 -15 8 0 15 -7 15 -15 0 -8 -7 -15 -15
-15 -8 0 -15 -7 -15 -15 0 -8 7 -15 15 -15 8 0 15 -7 15 -15 0 -8 -7 -15 -15
-15 -8 0 -15 -7 -15 -15 0 -8 7 -15 15 -15 8 0 15 -7 15 -15 0 -8 7 -15 15
-15 8 0 15 -7 15 -15 0 -8 7 -15 15 -15 8 0 15 7 15 15 0 8 -7 15 -15 15 -8 0
-15 7 -15 15 0 8 7 15 15 15 8 0 15 7 15 15 0 8 7 15 15 15 8 0 15 7 15 15 0
8 7 15 15 15 8 0 15 7 15 15 0 8 -7 15 -15 15 -8 0 -15 7 -15 15 0 8 7 15 15
15 8 0 15 7 15 15 0 8 -7 15 -15 15 -8 0 -15 7 -15 15 0 8 -7 15 -15 15 -8 0
-15 7 -15 15 0 8 -7 15 -15 15 -8 0 -15 -7 -15 -15z m30 -30 c0 -8 7 -15 15
-15 8 0 15 -7 15 -15 0 -8 -7 -15 -15 -15 -8 0 -15 -7 -15 -15 0 -8 7 -15 15
-15 8 0 15 -7 15 -15 0 -8 -7 -15 -15 -15 -8 0 -15 -7 -15 -15 0 -8 -7 -15
-15 -15 -8 0 -15 -7 -15 -15 0 -8 -7 -15 -15 -15 -8 0 -15 7 -15 15 0 8 7 15
15 15 8 0 15 7 15 15 0 8 -7 15 -15 15 -8 0 -15 7 -15 15 0 8 7 15 15 15 8 0
15 7 15 15 0 8 -7 15 -15 15 -8 0 -15 7 -15 15 0 8 7 15 15 15 8 0 15 7 15 15
0 8 7 15 15 15 8 0 15 -7 15 -15z"/>
<path d="M750 2835 c0 -8 7 -15 15 -15 8 0 15 -7 15 -15 0 -8 7 -15 15 -15 8
0 15 7 15 15 0 8 -7 15 -15 15 -8 0 -15 7 -15 15 0 8 -7 15 -15 15 -8 0 -15
-7 -15 -15z"/>
<path d="M630 2595 c0 -8 -7 -15 -15 -15 -8 0 -15 -7 -15 -15 0 -8 -7 -15 -15
-15 -8 0 -15 7 -15 15 0 8 -7 15 -15 15 -8 0 -15 -7 -15 -15 0 -8 -7 -15 -15
-15 -8 0 -15 -7 -15 -15 0 -8 7 -15 15 -15 8 0 15 -7 15 -15 0 -8 -7 -15 -15
-15 -8 0 -15 -7 -15 -15 0 -8 -7 -15 -15 -15 -8 0 -15 -7 -15 -15 0 -8 -7 -15
-15 -15 -8 0 -15 -7 -15 -15 0 -8 7 -15 15 -15 8 0 15 -7 15 -15 0 -8 -7 -15
-15 -15 -8 0 -15 -7 -15 -15 0 -8 -7 -15 -15 -15 -8 0 -15 -7 -15 -15 0 -8 7
-15 15 -15 8 0 15 7 15 15 0 8 7 15 15 15 8 0 15 -7 15 -15 0 -8 7 -15 15 -15
8 0 15 7 15 15 0 8 7 15 15 15 8 0 15 7 15 15 0 8 7 15 15 15 8 0 15 7 15 15
0 8 7 15 15 15 8 0 15 7 15 15 0 8 7 15 15 15 8 0 15 7 15 15 0 8 7 15 15 15
8 0 15 7 15 15 0 8 7 15 15 15 8 0 15 7 15 15 0 8 -7 15 -15 15 -8 0 -15 7
-15 15 0 8 7 15 15 15 8 0 15 7 15 15 0 8 -7 15 -15 15 -8 0 -15 7 -15 15 0 8
-7 15 -15 15 -8 0 -15 -7 -15 -15z m30 -30 c0 -8 -7 -15 -15 -15 -8 0 -15 -7
-15 -15 0 -8 7 -15 15 -15 8 0 15 -7 15 -15 0 -8 -7 -15 -15 -15 -8 0 -15 -7
-15 -15 0 -8 -7 -15 -15 -15 -8 0 -15 -7 -15 -15 0 -8 -7 -15 -15 -15 -8 0
-15 -7 -15 -15 0 -8 -7 -15 -15 -15 -8 0 -15 -7 -15 -15 0 -8 -7 -15 -15 -15
-8 0 -15 -7 -15 -15 0 -8 -7 -15 -15 -15 -8 0 -15 7 -15 15 0 8 7 15 15 15 8
0 15 7 15 15 0 8 -7 15 -15 15 -8 0 -15 7 -15 15 0 8 7 15 15 15 8 0 15 7 15
15 0 8 7 15 15 15 8 0 15 7 15 15 0 8 7 15 15 15 8 0 15 7 15 15 0 8 -7 15
-15 15 -8 0 -15 7 -15 15 0 8 7 15 15 15 8 0 15 -7 15 -15 0 -8 7 -15 15 -15
8 0 15 7 15 15 0 8 7 15 15 15 8 0 15 7 15 15 0 8 7 15 15 15 8 0 15 -7 15
-15z"/>
<path d="M600 2505 c0 -8 -7 -15 -15 -15 -8 0 -15 -7 -15 -15 0 -8 -7 -15 -15
-15 -8 0 -15 -7 -15 -15 0 -8 -7 -15 -15 -15 -8 0 -15 -7 -15 -15 0 -8 7 -15
15 -15 8 0 15 7 15 15 0 8 7 15 15 15 8 0 15 7 15 15 0 8 7 15 15 15 8 0 15 7
15 15 0 8 7 15 15 15 8 0 15 7 15 15 0 8 -7 15 -15 15 -8 0 -15 -7 -15 -15z"/>
<path d="M300 2385 c0 -8 -7 -15 -15 -15 -8 0 -15 -7 -15 -15 0 -8 7 -15 15
-15 8 0 15 -7 15 -15 0 -8 7 -15 15 -15 8 0 15 7 15 15 0 8 -7 15 -15 15 -8 0
-15 7 -15 15 0 8 7 15 15 15 8 0 15 7 15 15 0 8 -7 15 -15 15 -8 0 -15 -7 -15
-15z"/>
<path d="M416 2677 c-3 -12 -3 -23 -1 -26 3 -2 5 1 5 7 0 7 7 12 15 12 8 0 15
-5 15 -12 0 -6 2 -9 5 -6 8 8 -5 36 -20 42 -7 2 -15 -4 -19 -17z"/>
<path d="M368 2633 c6 -2 10 -9 6 -14 -3 -5 0 -9 5 -9 6 0 11 -7 11 -15 0 -8
7 -15 15 -15 8 0 15 3 15 8 0 10 -46 52 -56 51 -5 0 -3 -3 4 -6z"/>
<path d="M1140 2985 c0 -8 -7 -15 -15 -15 -8 0 -15 -7 -15 -15 0 -8 -7 -15
-15 -15 -8 0 -15 -7 -15 -15 0 -8 -7 -15 -15 -15 -8 0 -15 -7 -15 -15 0 -8 -7
-15 -15 -15 -8 0 -15 -7 -15 -15 0 -8 -7 -15 -15 -15 -8 0 -15 -7 -15 -15 0
-8 3 -15 7 -15 4 0 39 34 79 75 72 75 94 89 94 60 0 -8 4 -15 9 -15 5 0 11 7
15 15 3 8 12 15 21 15 8 0 15 -7 15 -15 0 -20 6 -19 30 5 22 22 26 40 10 40
-5 0 -10 -7 -10 -15 0 -8 -6 -15 -14 -15 -8 0 -16 7 -20 15 -3 8 -10 15 -16
15 -5 0 -10 -7 -10 -15 0 -8 -6 -15 -14 -15 -8 0 -16 7 -20 15 -3 8 -10 15
-16 15 -5 0 -10 -7 -10 -15z"/>
<path d="M1320 2985 c0 -8 -7 -15 -15 -15 -8 0 -15 -7 -15 -15 0 -8 4 -15 9
-15 5 0 11 7 15 15 3 8 12 15 21 15 8 0 15 -7 15 -15 0 -8 7 -15 15 -15 8 0
15 -7 15 -15 0 -8 5 -15 10 -15 16 0 12 27 -6 34 -8 3 -12 10 -9 16 10 15 35
12 35 -5 0 -8 5 -15 10 -15 6 0 13 7 16 15 4 8 12 15 20 15 8 0 14 -7 14 -15
0 -20 6 -19 30 5 22 22 26 40 10 40 -5 0 -10 -7 -10 -15 0 -8 -7 -15 -15 -15
-8 0 -15 7 -15 15 0 8 -7 15 -15 15 -8 0 -15 -7 -15 -15 0 -8 -7 -15 -15 -15
-8 0 -15 7 -15 15 0 8 -7 15 -15 15 -8 0 -15 -7 -15 -15 0 -8 -7 -15 -15 -15
-8 0 -15 7 -15 15 0 8 -7 15 -15 15 -8 0 -15 -7 -15 -15z"/>
<path d="M1620 2984 c0 -8 5 -12 11 -9 6 4 13 -2 16 -14 5 -21 14 -26 26 -15
7 7 -33 54 -45 54 -5 0 -8 -7 -8 -16z"/>
<path d="M1110 2895 c0 -8 -7 -15 -15 -15 -8 0 -15 -7 -15 -15 0 -8 -7 -15
-15 -15 -8 0 -15 -7 -15 -15 0 -23 10 -18 46 20 34 34 43 55 24 55 -5 0 -10
-7 -10 -15z"/>
<path d="M1110 2835 c0 -8 -7 -15 -15 -15 -8 0 -15 -7 -15 -15 0 -8 -7 -15
-15 -15 -8 0 -15 -7 -15 -15 0 -23 10 -18 46 20 34 34 43 55 24 55 -5 0 -10
-7 -10 -15z"/>
<path d="M1230 2835 c0 -8 -7 -15 -15 -15 -8 0 -15 -7 -15 -15 0 -8 4 -15 9
-15 5 0 11 7 15 15 3 8 12 15 21 15 8 0 15 -7 15 -15 0 -8 5 -15 10 -15 16 0
12 18 -10 40 -24 24 -30 25 -30 5z"/>
<path d="M1410 2835 c0 -8 -7 -15 -15 -15 -8 0 -15 -7 -15 -15 0 -20 6 -19 30
5 22 22 26 40 10 40 -5 0 -10 -7 -10 -15z"/>
<path d="M900 2745 c0 -8 -7 -15 -15 -15 -8 0 -15 -7 -15 -15 0 -8 3 -15 8
-15 12 0 52 47 45 54 -11 11 -23 6 -23 -9z"/>
<path d="M1140 2745 c0 -8 -7 -15 -15 -15 -8 0 -15 -7 -15 -15 0 -20 6 -19 30
5 22 22 26 40 10 40 -5 0 -10 -7 -10 -15z"/>
<path d="M1200 2745 c0 -8 -7 -15 -15 -15 -8 0 -15 -7 -15 -15 0 -8 -7 -15
-15 -15 -8 0 -15 -7 -15 -15 0 -22 5 -19 45 20 35 36 44 55 25 55 -5 0 -10 -7
-10 -15z"/>
<path d="M1320 2749 c0 -6 -7 -17 -15 -26 -9 -8 -13 -18 -10 -21 7 -7 45 33
45 48 0 5 -4 10 -10 10 -5 0 -10 -5 -10 -11z"/>
<path d="M2936 2735 c-4 -14 -11 -23 -16 -20 -6 3 -10 1 -10 -4 0 -6 7 -11 15
-11 8 0 15 -8 15 -17 0 -15 2 -16 10 -3 6 10 6 16 0 18 -13 5 -13 32 0 32 6 0
10 7 10 15 0 24 -17 17 -24 -10z"/>
<path d="M1530 2715 c0 -8 -7 -15 -15 -15 -8 0 -15 -7 -15 -15 0 -20 6 -19 30
5 22 22 26 40 10 40 -5 0 -10 -7 -10 -15z"/>
<path d="M1080 2685 c0 -8 -7 -15 -15 -15 -8 0 -15 -7 -15 -15 0 -8 -7 -15
-15 -15 -8 0 -15 -7 -15 -15 0 -8 -7 -15 -15 -15 -8 0 -15 -7 -15 -15 0 -8 -7
-15 -15 -15 -8 0 -15 -7 -15 -15 0 -8 -7 -15 -15 -15 -8 0 -15 -7 -15 -15 0
-8 -7 -15 -15 -15 -8 0 -15 -7 -15 -15 0 -8 -7 -15 -15 -15 -8 0 -15 -7 -15
-15 0 -8 -7 -15 -15 -15 -8 0 -15 -7 -15 -15 0 -8 -7 -15 -15 -15 -8 0 -15 -7
-15 -15 0 -8 -7 -15 -15 -15 -8 0 -15 -7 -15 -15 0 -8 -7 -15 -15 -15 -8 0
-15 -7 -15 -15 0 -8 -7 -15 -15 -15 -15 0 -20 -12 -9 -23 8 -7 374 357 374
372 0 6 -4 11 -10 11 -5 0 -10 -7 -10 -15z"/>
<path d="M1680 2685 c0 -8 -7 -15 -15 -15 -8 0 -15 -7 -15 -15 0 -20 6 -19 30
5 22 22 26 40 10 40 -5 0 -10 -7 -10 -15z"/>
<path d="M1380 2625 c0 -8 -7 -15 -15 -15 -8 0 -15 -7 -15 -15 0 -20 6 -19 30
5 22 22 26 40 10 40 -5 0 -10 -7 -10 -15z"/>
<path d="M2103 2625 c0 -8 6 -15 14 -15 7 0 13 -7 13 -15 0 -8 5 -15 10 -15 6
0 10 7 10 15 0 8 -4 15 -10 15 -5 0 -10 7 -10 15 0 8 -6 15 -13 15 -8 0 -14
-7 -14 -15z"/>
<path d="M1380 2565 c0 -8 -7 -15 -15 -15 -8 0 -15 -7 -15 -15 0 -20 6 -19 30
5 22 22 26 40 10 40 -5 0 -10 -7 -10 -15z"/>
<path d="M2700 2514 c0 -15 40 -45 50 -39 17 10 32 45 20 45 -5 0 -10 -7 -10
-15 0 -20 -19 -19 -42 2 -10 9 -18 12 -18 7z"/>
<path d="M1590 2475 c0 -8 -7 -15 -15 -15 -8 0 -15 -7 -15 -15 0 -14 3 -14 23
2 23 17 32 43 15 43 -4 0 -8 -7 -8 -15z"/>
<path d="M990 2415 c0 -8 -7 -15 -15 -15 -8 0 -15 -7 -15 -15 0 -20 6 -19 30
7 22 24 26 38 10 38 -5 0 -10 -7 -10 -15z"/>
<path d="M1470 2415 c0 -8 -7 -15 -15 -15 -8 0 -15 -8 -15 -17 0 -14 4 -12 25
7 26 25 32 40 15 40 -5 0 -10 -7 -10 -15z"/>
<path d="M1574 2357 c-28 -12 -67 -34 -87 -49 -19 -16 -47 -28 -61 -28 -17 0
-26 -6 -26 -16 0 -8 -18 -63 -41 -122 -207 -538 -257 -682 -324 -920 -14 -50
-39 -118 -55 -151 -17 -32 -30 -61 -30 -64 0 -2 -8 -22 -17 -43 -17 -40 -24
-64 -18 -64 2 0 26 46 53 103 l49 102 354 356 c195 195 368 364 384 376 56 39
106 63 129 63 19 0 24 7 30 38 10 60 7 179 -6 248 -15 82 -35 104 -93 104 -25
0 -45 -4 -45 -10 0 -5 -13 -24 -28 -42 -16 -18 -45 -61 -66 -95 -20 -34 -67
-99 -104 -143 -104 -127 -133 -164 -143 -182 -19 -34 1 -17 39 35 22 28 76 95
121 147 45 52 96 121 113 152 17 32 45 74 62 95 l32 36 39 -19 c35 -17 41 -25
52 -74 17 -68 18 -204 3 -241 -7 -15 -22 -30 -34 -33 -22 -5 -113 -62 -131
-81 -5 -6 -28 -23 -50 -37 -60 -38 -108 -85 -100 -97 3 -7 -2 -11 -14 -11 -12
0 -21 -7 -21 -15 0 -9 -7 -18 -15 -21 -8 -4 -12 -10 -9 -15 5 -9 -12 -12 -46
-10 -10 0 -11 -1 -2 -5 6 -3 12 -10 12 -15 0 -14 -51 -59 -66 -59 -8 0 -14 -5
-14 -12 0 -6 -29 -41 -64 -77 -203 -210 -236 -243 -236 -232 0 18 151 271 161
271 5 0 9 6 9 14 0 7 7 19 15 26 8 7 15 19 15 28 0 9 9 25 20 37 20 21 102
177 96 182 -2 2 -18 -22 -35 -54 -42 -78 -36 -66 -126 -208 -161 -254 -230
-355 -197 -290 26 51 45 101 43 113 -1 7 5 15 13 18 10 4 15 18 14 38 -1 37 9
59 23 51 5 -4 5 3 0 17 -4 13 -5 32 -1 43 4 11 15 46 24 77 16 55 30 67 49 43
5 -6 7 -4 4 5 -2 8 -10 14 -17 12 -7 -1 -10 5 -7 15 17 61 19 64 34 58 13 -4
14 -3 4 9 -10 12 -8 19 8 35 11 11 16 23 11 26 -5 3 -1 20 10 37 10 17 16 38
13 47 -5 13 -3 14 7 4 11 -10 16 -8 25 10 6 12 8 31 5 42 -8 23 7 75 22 75 5
0 7 4 3 9 -3 5 -1 12 5 16 5 3 10 15 10 26 0 10 5 19 10 19 6 0 10 7 10 15 0
18 37 130 51 157 5 10 16 18 24 18 8 0 31 11 51 25 20 14 42 25 49 25 7 0 18
7 25 15 7 8 16 12 21 9 5 -3 9 0 9 5 0 25 59 10 100 -24 48 -40 67 -39 29 1
-28 31 -71 54 -96 54 -10 -1 -41 -11 -69 -23z"/>
<path d="M1230 2355 c0 -8 7 -15 15 -15 8 0 15 -7 15 -15 0 -9 6 -12 15 -9 13
5 11 11 -10 30 -30 28 -35 29 -35 9z"/>
<path d="M1350 2355 c0 -8 -7 -15 -15 -15 -8 0 -15 -7 -15 -15 0 -13 6 -11 30
6 16 12 27 26 24 31 -9 13 -24 9 -24 -7z"/>
<path d="M630 2295 c0 -8 -7 -15 -15 -15 -8 0 -15 -7 -15 -15 0 -8 -7 -15 -15
-15 -8 0 -15 -7 -15 -15 0 -8 -7 -15 -15 -15 -8 0 -15 -7 -15 -15 0 -8 -7 -15
-15 -15 -8 0 -15 -7 -15 -15 0 -8 -7 -15 -15 -15 -8 0 -15 -7 -15 -15 0 -8 -7
-15 -15 -15 -8 0 -15 -7 -15 -15 0 -8 -7 -15 -15 -15 -8 0 -15 -7 -15 -15 0
-8 -7 -15 -15 -15 -8 0 -15 -7 -15 -15 0 -8 -7 -15 -15 -15 -8 0 -15 -7 -15
-15 0 -8 -7 -15 -15 -15 -8 0 -15 -7 -15 -15 0 -8 -7 -15 -15 -15 -8 0 -15 -7
-15 -15 0 -8 -7 -15 -15 -15 -8 0 -15 -4 -15 -10 0 -5 4 -10 10 -10 10 0 380
364 380 374 0 3 -7 6 -15 6 -8 0 -15 -7 -15 -15z"/>
<path d="M1170 2295 c0 -8 -7 -15 -15 -15 -8 0 -15 -7 -15 -15 0 -8 -7 -15
-15 -15 -8 0 -15 -7 -15 -15 0 -22 5 -19 45 20 35 36 44 55 25 55 -5 0 -10 -7
-10 -15z"/>
<path d="M1230 2295 c0 -8 -7 -15 -15 -15 -8 0 -15 -7 -15 -15 0 -8 -7 -15
-15 -15 -8 0 -15 -7 -15 -15 0 -8 -7 -15 -15 -15 -8 0 -15 -7 -15 -15 0 -8 -7
-15 -15 -15 -8 0 -15 -4 -15 -10 0 -5 3 -10 8 -10 12 0 141 128 135 134 -11
11 -23 6 -23 -9z"/>
<path d="M1344 2235 c-22 -54 -16 -64 11 -16 28 49 29 51 14 51 -5 0 -17 -16
-25 -35z"/>
<path d="M1050 2175 c0 -8 -7 -15 -15 -15 -15 0 -20 -12 -9 -23 7 -7 54 33 54
46 0 4 -7 7 -15 7 -8 0 -15 -7 -15 -15z"/>
<path d="M270 2115 c0 -8 -7 -15 -15 -15 -15 0 -20 -12 -9 -23 7 -7 54 33 54
46 0 4 -7 7 -15 7 -8 0 -15 -7 -15 -15z"/>
<path d="M660 2085 c0 -8 -7 -15 -15 -15 -8 0 -15 -4 -15 -10 0 -17 15 -11 40
15 19 21 21 25 7 25 -9 0 -17 -7 -17 -15z"/>
<path d="M30 2055 c0 -8 -8 -15 -17 -15 -14 0 -15 -2 -4 -9 9 -6 20 -3 32 7
23 20 24 32 4 32 -8 0 -15 -7 -15 -15z"/>
<path d="M210 2055 c0 -8 -7 -15 -15 -15 -8 0 -15 -4 -15 -10 0 -15 17 -12 40
7 24 21 26 33 5 33 -8 0 -15 -7 -15 -15z"/>
<path d="M30 1995 c0 -8 -8 -15 -17 -15 -14 0 -15 -2 -4 -9 9 -6 20 -3 32 7
23 20 24 32 4 32 -8 0 -15 -7 -15 -15z"/>
<path d="M150 1995 c0 -8 -7 -15 -15 -15 -8 0 -15 -7 -15 -15 0 -8 -7 -15 -15
-15 -8 0 -15 -7 -15 -15 0 -8 -7 -15 -15 -15 -8 0 -15 -4 -15 -10 0 -21 23 -8
71 39 52 52 58 61 34 61 -8 0 -15 -7 -15 -15z"/>
<path d="M690 1995 c0 -8 -7 -15 -15 -15 -8 0 -15 -7 -15 -15 0 -8 -7 -15 -15
-15 -8 0 -15 -7 -15 -15 0 -8 -7 -15 -16 -15 -8 0 -12 -5 -9 -11 4 -6 -2 -13
-14 -16 -26 -7 -26 -8 -1 -33 22 -22 40 -26 40 -10 0 6 -7 10 -15 10 -28 0
-15 22 45 79 63 60 70 71 45 71 -8 0 -15 -7 -15 -15z"/>
<path d="M180 1965 c0 -8 -7 -15 -15 -15 -8 0 -15 -7 -15 -15 0 -8 -7 -15 -15
-15 -8 0 -15 -7 -15 -15 0 -8 -7 -15 -15 -15 -8 0 -15 -4 -15 -10 0 -21 23 -8
71 39 52 52 58 61 34 61 -8 0 -15 -7 -15 -15z"/>
<path d="M30 1935 c0 -8 -8 -15 -17 -15 -14 0 -15 -2 -4 -9 9 -6 20 -3 32 7
23 20 24 32 4 32 -8 0 -15 -7 -15 -15z"/>
<path d="M210 1935 c0 -8 -7 -15 -15 -15 -8 0 -15 -7 -15 -15 0 -8 -7 -15 -15
-15 -8 0 -15 -4 -15 -10 0 -19 21 -10 55 24 38 36 43 46 20 46 -8 0 -15 -7
-15 -15z"/>
<path d="M510 1935 c0 -8 -7 -15 -15 -15 -9 0 -12 -6 -9 -15 5 -13 11 -11 30
10 28 30 29 35 9 35 -8 0 -15 -7 -15 -15z"/>
<path d="M240 1905 c0 -8 -7 -15 -15 -15 -8 0 -15 -4 -15 -10 0 -15 17 -12 40
7 24 21 26 33 5 33 -8 0 -15 -7 -15 -15z"/>
<path d="M270 1875 c0 -8 -7 -15 -15 -15 -8 0 -15 -4 -15 -10 0 -16 18 -12 40
10 24 24 25 30 5 30 -8 0 -15 -7 -15 -15z"/>
<path d="M810 1875 c0 -8 -7 -15 -15 -15 -8 0 -15 -7 -15 -15 0 -8 -7 -15 -15
-15 -8 0 -15 -7 -15 -15 0 -8 -7 -15 -15 -15 -8 0 -15 -7 -15 -15 0 -8 -7 -15
-15 -15 -8 0 -15 -4 -15 -10 0 -22 23 -7 80 52 59 60 70 78 50 78 -5 0 -10 -7
-10 -15z"/>
<path d="M2853 1875 c0 -8 6 -15 14 -15 7 0 13 -7 13 -15 0 -8 -5 -15 -11 -15
-5 0 -8 -4 -5 -9 4 -5 0 -12 -6 -14 -8 -4 -9 -6 -2 -6 11 -1 50 48 42 52 -2 1
-12 10 -24 20 -17 14 -21 15 -21 2z"/>
<path d="M300 1845 c0 -8 -7 -15 -15 -15 -8 0 -15 -7 -15 -15 0 -8 -7 -15 -15
-15 -8 0 -15 -4 -15 -10 0 -19 19 -10 55 25 39 40 42 45 20 45 -8 0 -15 -7
-15 -15z"/>
<path d="M330 1815 c0 -8 -7 -15 -15 -15 -8 0 -15 -4 -15 -10 0 -16 18 -12 40
10 24 24 25 30 5 30 -8 0 -15 -7 -15 -15z"/>
<path d="M817 1762 c-37 -53 -72 -116 -43 -77 9 11 24 29 34 40 18 19 54 85
47 85 -2 0 -19 -22 -38 -48z"/>
<path d="M180 1785 c0 -8 -7 -15 -15 -15 -20 0 -19 -6 5 -30 22 -22 40 -26 40
-10 0 6 -7 10 -15 10 -8 0 -15 7 -15 15 0 9 7 18 15 21 8 4 15 10 15 15 0 5
-7 9 -15 9 -8 0 -15 -7 -15 -15z"/>
<path d="M120 1735 c0 -3 9 -14 20 -25 22 -22 40 -26 40 -10 0 6 -7 10 -15 10
-8 0 -15 7 -15 15 0 8 -7 15 -15 15 -8 0 -15 -2 -15 -5z"/>
<path d="M30 1695 c0 -8 -8 -15 -17 -15 -14 0 -15 -2 -4 -9 9 -6 20 -2 32 10
23 23 24 29 4 29 -8 0 -15 -7 -15 -15z"/>
<path d="M630 1695 c0 -8 -7 -15 -15 -15 -8 0 -15 -4 -15 -10 0 -16 18 -12 40
10 24 24 25 30 5 30 -8 0 -15 -7 -15 -15z"/>
<path d="M30 1645 c0 -3 9 -14 20 -25 22 -22 40 -26 40 -10 0 6 -7 10 -15 10
-8 0 -15 7 -15 15 0 8 -7 15 -15 15 -8 0 -15 -2 -15 -5z"/>
<path d="M390 1635 c0 -8 -7 -15 -15 -15 -8 0 -15 -4 -15 -10 0 -16 18 -12 40
10 24 24 25 30 5 30 -8 0 -15 -7 -15 -15z"/>
<path d="M450 1635 c0 -8 -7 -15 -15 -15 -8 0 -15 -4 -15 -10 0 -16 18 -12 40
10 24 24 25 30 5 30 -8 0 -15 -7 -15 -15z"/>
<path d="M180 1605 c0 -8 -7 -15 -15 -15 -8 0 -15 -4 -15 -10 0 -16 18 -12 40
10 24 24 25 30 5 30 -8 0 -15 -7 -15 -15z"/>
<path d="M653 1506 c-24 -48 -43 -91 -43 -98 0 -15 15 0 15 15 1 7 6 11 12 10
6 -2 19 21 29 50 9 28 21 57 26 64 5 7 8 19 6 28 -2 9 -22 -22 -45 -69z"/>
<path d="M1895 1504 c-13 -80 -18 -99 -36 -141 l-18 -43 22 4 c12 3 24 5 27 5
3 1 -2 6 -10 12 -11 8 -12 12 -2 16 6 2 12 11 12 18 0 8 10 16 23 18 l22 4
-22 2 c-15 1 -21 6 -17 16 4 8 11 12 18 8 6 -4 5 1 -3 10 -7 9 -9 17 -4 17 5
0 10 7 11 15 1 8 3 22 4 30 2 20 105 19 105 -1 0 -7 -4 -11 -9 -8 -4 3 -8 0
-8 -5 0 -16 26 -13 43 3 8 8 18 11 23 6 5 -5 24 -11 42 -13 18 -3 44 -13 58
-22 14 -9 30 -15 37 -12 16 5 -90 52 -138 61 -22 4 -45 12 -51 17 -6 4 -36 11
-66 15 l-57 7 -6 -39z"/>
<path d="M300 1485 c0 -8 -7 -15 -15 -15 -8 0 -15 -4 -15 -10 0 -16 18 -12 40
10 24 24 25 30 5 30 -8 0 -15 -7 -15 -15z"/>
<path d="M540 1485 c0 -8 -8 -15 -17 -15 -12 0 -14 -3 -6 -11 8 -8 17 -5 32
10 25 25 26 31 6 31 -8 0 -15 -7 -15 -15z"/>
<path d="M21 1350 c12 -16 26 -27 31 -24 13 9 9 24 -7 24 -8 0 -15 7 -15 15 0
8 -7 15 -15 15 -13 0 -11 -6 6 -30z"/>
<path d="M571 1316 c-24 -77 -25 -86 -11 -86 6 0 10 13 10 29 0 16 7 45 16 66
8 20 13 42 11 48 -2 7 -14 -19 -26 -57z"/>
<path d="M2341 1341 c32 -15 74 -40 94 -55 31 -24 35 -25 26 -8 -14 27 -55 54
-111 75 -68 25 -72 20 -9 -12z"/>
<path d="M330 1335 c0 -8 -7 -15 -15 -15 -8 0 -15 -4 -15 -10 0 -16 18 -12 40
10 24 24 25 30 5 30 -8 0 -15 -7 -15 -15z"/>
<path d="M1785 1213 c-48 -92 -162 -269 -218 -338 -22 -27 -77 -87 -121 -133
l-81 -83 25 -19 c34 -27 134 -80 199 -107 113 -47 327 -93 435 -93 77 0 301
77 321 111 4 6 26 19 49 29 22 9 62 36 88 59 25 22 53 41 61 41 9 0 29 12 46
26 34 28 34 27 4 133 -9 35 -18 50 -24 44 -6 -6 -6 -19 1 -37 13 -35 14 -117
0 -96 -7 12 -10 11 -15 -5 -12 -37 -22 -50 -42 -53 -11 -2 -25 -14 -31 -28
-13 -27 -23 -29 -54 -13 -18 10 -20 9 -15 -5 4 -10 1 -16 -8 -16 -20 0 -34 25
-37 67 -1 7 -3 11 -6 9 -2 -3 -17 21 -33 54 -16 32 -36 61 -44 64 -8 3 -15 14
-15 24 0 10 -11 24 -24 31 -17 10 -22 19 -18 35 3 11 2 18 -3 14 -4 -4 -18 6
-32 22 -13 16 -29 29 -35 27 -5 -1 -18 13 -28 32 -11 19 -25 39 -32 45 -9 9
-9 7 0 -6 9 -11 10 -18 2 -23 -5 -3 -10 -2 -10 3 0 16 -35 49 -47 45 -7 -3
-13 2 -13 11 0 9 -6 16 -13 16 -23 0 -74 44 -70 60 3 10 1 9 -7 -2 -15 -24
-26 -23 -33 3 -4 15 -11 20 -22 15 -9 -3 -18 1 -22 10 -4 11 -8 12 -13 4 -5
-8 -9 -5 -13 9 -2 11 1 28 8 37 11 16 18 16 56 6 74 -21 256 -103 313 -141 23
-14 58 -36 80 -46 39 -20 204 -176 244 -230 l22 -30 -11 29 c-15 44 -101 147
-197 236 -109 101 -218 158 -387 200 -64 17 -122 30 -129 30 -6 0 -29 -35 -51
-77z m120 -83 c188 -104 365 -284 436 -444 25 -58 22 -109 -6 -115 -11 -2 -22
-6 -25 -10 -11 -13 -51 -31 -70 -31 -12 0 -19 -4 -16 -9 6 -10 -26 -21 -61
-21 -13 0 -23 -4 -23 -8 0 -14 -80 -28 -140 -25 -83 4 -196 20 -218 32 -10 5
-28 7 -40 4 -13 -3 -22 -1 -22 6 0 6 -8 11 -17 11 -19 0 -86 22 -93 31 -3 3
-34 19 -70 34 -74 33 -119 64 -119 83 -1 7 19 33 44 58 25 24 45 47 45 50 0 4
10 16 23 28 13 11 36 40 51 64 16 23 32 42 35 42 18 0 82 71 103 115 14 28 34
67 46 87 12 21 19 45 15 54 -9 25 36 11 122 -36z"/>
<path d="M2208 820 c23 -30 42 -60 42 -66 0 -6 12 -21 27 -35 14 -13 23 -17
18 -9 -18 34 -94 137 -111 151 -9 7 1 -11 24 -41z"/>
<path d="M120 1252 c0 -10 38 -42 50 -42 6 0 10 5 10 10 0 6 -7 10 -15 10 -8
0 -15 7 -15 15 0 8 -7 15 -15 15 -8 0 -15 -3 -15 -8z"/>
<path d="M534 1153 c-19 -180 20 -449 81 -561 24 -44 104 -112 132 -112 24 0
0 38 -30 47 -18 5 -41 23 -53 40 -12 18 -24 30 -27 27 -2 -3 -9 8 -15 25 -6
16 -7 32 -4 36 4 3 1 9 -5 13 -6 4 -14 27 -18 52 -4 25 -10 50 -15 55 -15 19
-40 233 -30 260 6 16 6 25 0 25 -6 0 -8 31 -5 80 3 44 3 80 1 80 -2 0 -8 -30
-12 -67z"/>
<path d="M450 1105 c0 -9 52 -56 58 -51 3 3 -7 17 -22 31 -26 24 -36 30 -36
20z"/>
<path d="M421 1056 c-8 -10 -10 -23 -6 -33 5 -10 8 -21 7 -24 0 -3 5 -6 13 -6
20 0 29 47 12 64 -12 12 -16 12 -26 -1z"/>
<path d="M2435 1038 c50 -42 84 -76 113 -113 l22 -30 -15 30 c-22 44 -34 57
-100 104 -39 27 -46 31 -20 9z"/>
<path d="M360 1009 c0 -5 4 -7 10 -4 5 3 12 -6 16 -20 3 -14 13 -25 23 -25 14
0 14 2 1 10 -8 5 -12 10 -8 10 10 0 -24 40 -34 40 -5 0 -8 -5 -8 -11z"/>
<path d="M2622 985 c6 -16 15 -35 19 -40 9 -12 3 -136 -6 -167 -11 -32 5 -19
21 17 26 64 14 146 -30 200 -15 19 -16 18 -4 -10z"/>
<path d="M1277 625 c-33 -25 -63 -43 -68 -39 -5 3 -9 1 -9 -5 0 -5 -16 -15
-35 -21 -19 -6 -38 -17 -42 -24 -8 -13 -49 -29 -110 -44 -15 -4 -62 -7 -104
-7 -83 0 -114 14 -104 46 4 11 3 19 -2 19 -8 0 -34 -72 -29 -78 2 -1 32 -7 67
-13 117 -20 229 6 343 77 82 51 166 114 166 124 0 17 -13 11 -73 -35z"/>
<path d="M1260 295 c0 -10 53 -55 58 -50 3 3 -7 16 -22 30 -27 25 -36 30 -36
20z"/>
<path d="M1223 235 c-3 -9 3 -25 13 -36 l18 -20 8 22 c5 13 6 29 4 36 -7 18
-35 16 -43 -2z"/>
</g>
</svg>
